<svg width="192" height="192" viewBox="0 0 192 192" xmlns="http://www.w3.org/2000/svg">
  <!-- Background Gradient -->
  <defs>
    <linearGradient id="bgGradient" x1="0%" y1="0%" x2="100%" y2="100%">
      <stop offset="0%" style="stop-color:#14B8A6;stop-opacity:1" />
      <stop offset="100%" style="stop-color:#06B6D4;stop-opacity:1" />
    </linearGradient>
  </defs>
  
  <!-- Background -->
  <rect width="192" height="192" rx="40" fill="url(#bgGradient)"/>
  
  <!-- Truck Icon (Simple) -->
  <path d="M60 80 L110 80 L110 100 L130 100 L140 110 L140 120 L130 120 L130 125 C130 130 126 134 121 134 C116 134 112 130 112 125 L80 125 C80 130 76 134 71 134 C66 134 62 130 62 125 L60 125 L50 125 L50 90 L60 80 Z M110 100 L110 110 L130 110 L125 100 L110 100 Z" fill="white" opacity="0.95"/>
  
  <!-- Text "xC" -->
  <text x="96" y="165" font-family="Arial, sans-serif" font-size="32" font-weight="bold" fill="white" text-anchor="middle">xCrackz</text>
</svg>
